Coordinates
version=1
nRows=60
nColumns=12
inDegrees=yes

Units are S.I. units (second, meters, Newtons, ...)
Angles are in degrees

endheader
time	SC_y	SC_z	SC_x	AC_y	AC_z	AC_x	GH_y	GH_z	GH_yy	EL_x	PS_y
       0.0              -21.07          10.51          62.95          43.09         -1.643           -6.5          68.18          57.66          132.8          76.93          111.4
  0.002691              -21.07          10.52          62.95          43.09         -1.646         -6.498          68.16          57.66          132.8          76.94          111.4
  0.005381              -21.07          10.52          62.94          43.09         -1.648         -6.496          68.14          57.65          132.7          76.94          111.4
  0.008072              -21.07          10.53          62.94          43.09         -1.651         -6.493          68.12          57.64          132.7          76.95          111.4
   0.01076              -21.07          10.53          62.94          43.09         -1.654         -6.491          68.09          57.63          132.7          76.96          111.4
   0.01345              -21.07          10.54          62.93          43.08         -1.658         -6.488          68.06          57.61          132.7          76.97          111.4
   0.01614              -21.07          10.54          62.93          43.08         -1.661         -6.485          68.04           57.6          132.6          76.98          111.4
   0.01883              -21.07          10.55          62.92          43.08         -1.665         -6.482          68.01          57.59          132.6          76.98          111.4
   0.02152              -21.07          10.56          62.91          43.08         -1.669         -6.478          67.97          57.58          132.6          76.99          111.4
   0.02421              -21.07          10.56          62.91          43.07         -1.673         -6.475          67.94          57.56          132.6           77.0          111.4
   0.02691              -21.07          10.57           62.9          43.07         -1.677         -6.471           67.9          57.54          132.5          77.02          111.4
    0.0296              -21.07          10.58          62.89          43.07         -1.682         -6.467          67.86          57.53          132.5          77.03          111.4
   0.03229              -21.07          10.59          62.89          43.06         -1.688         -6.462          67.82          57.51          132.5          77.04          111.4
   0.03498              -21.07           10.6          62.88          43.06         -1.693         -6.457          67.77          57.49          132.4          77.05          111.4
   0.03767              -21.07          10.61          62.87          43.06         -1.699         -6.452          67.72          57.47          132.4          77.07          111.4
   0.04036              -21.07          10.62          62.86          43.05         -1.706         -6.446          67.67          57.44          132.3          77.09          111.4
   0.04305              -21.07          10.63          62.85          43.05         -1.713          -6.44          67.61          57.42          132.3           77.1          111.5
   0.04574              -21.07          10.64          62.83          43.04         -1.721         -6.433          67.54          57.39          132.2          77.12          111.5
   0.04843              -21.07          10.66          62.82          43.04          -1.73         -6.425          67.47          57.36          132.2          77.14          111.5
   0.05112              -21.07          10.67          62.81          43.03         -1.739         -6.417          67.39          57.33          132.1          77.17          111.5
   0.05381              -21.07          10.69          62.79          43.03          -1.75         -6.408          67.31          57.29          132.0          77.19          111.5
    0.0565              -21.07          10.71          62.77          43.02         -1.761         -6.398          67.21          57.25          131.9          77.22          111.5
   0.05919              -21.07          10.73          62.76          43.01         -1.774         -6.388          67.11           57.2          131.9          77.25          111.5
   0.06188              -21.07          10.75          62.73           43.0         -1.788         -6.376          66.99          57.15          131.8          77.28          111.5
   0.06457              -21.07          10.78          62.71          42.99         -1.803         -6.362          66.87           57.1          131.7          77.32          111.5
   0.06726              -21.07          10.81          62.68          42.98         -1.821         -6.347          66.72          57.04          131.5          77.36          111.5
   0.06995              -21.07          10.84          62.66          42.97          -1.84          -6.33          66.56          56.97          131.4          77.41          111.5
   0.07264              -21.07          10.88          62.62          42.96         -1.862         -6.312          66.38          56.89          131.2          77.47          111.5
   0.07534              -21.07          10.92          62.59          42.94         -1.887          -6.29          66.18          56.81          131.1          77.53          111.5
   0.07803              -21.07          10.97          62.54          42.92         -1.915         -6.266          65.95          56.71          130.9          77.59          111.5
   0.08072              -21.07          11.02          62.49           42.9         -1.947         -6.238          65.69          56.59          130.7          77.67          111.6
   0.08341              -21.07          11.08          62.44          42.88         -1.984         -6.207          65.38          56.46          130.4          77.76          111.6
    0.0861              -21.07          11.15          62.38          42.86         -2.026          -6.17          65.03          56.31          130.1          77.86          111.6
   0.08879              -21.07          11.23           62.3          42.83         -2.075         -6.128          64.63          56.14          129.8          77.98          111.6
   0.09148              -21.08          11.33          62.21          42.79         -2.133         -6.078          64.15          55.94          129.4          78.13          111.6
   0.09417              -21.08          11.44          62.11          42.75         -2.201         -6.019          63.59           55.7          128.9          78.29          111.7
   0.09686              -21.08          11.58          61.99           42.7         -2.282         -5.949          62.93          55.41          128.3          78.49          111.7
   0.09955              -21.08          11.74          61.84          42.64         -2.379         -5.866          62.13          55.07          127.6          78.72          111.8
    0.1022              -21.08          11.93          61.67          42.56         -2.496         -5.765          61.17          54.66          126.8          79.01          111.8
    0.1049              -21.08          12.17          61.45          42.48         -2.639         -5.641          59.99          54.15          125.8          79.36          111.9
    0.1076              -21.08          12.47          61.19          42.37         -2.816         -5.489          58.54          53.53          124.6          79.79          111.9
    0.1103              -21.08          12.83          60.85          42.23         -3.037         -5.299          56.72          52.75          123.1          80.33          112.0
     0.113              -21.09          13.29          60.43          42.06         -3.314         -5.059          54.44          51.77          121.1           81.0          112.2
    0.1157              -21.09          13.88           59.9          41.84         -3.667         -4.755          51.54          50.52          118.7          81.86          112.3
    0.1184               -21.1          14.63          59.22          41.56         -4.119         -4.365          47.82          48.93          115.5          82.96          112.5
    0.1211               -21.1           15.6          58.35           41.2         -4.699         -3.865          43.05          46.89          111.5          84.37          112.8
    0.1238              -21.11          16.83          57.23          40.75          -5.44         -3.226          36.96          44.27          106.3          86.18          113.1
    0.1265              -21.12          18.38          55.83          40.17         -6.371         -2.423          29.31          40.99          99.79          88.45          113.6
    0.1291              -21.13          20.27          54.12          39.47         -7.506         -1.445          19.97          36.98          91.88          91.21          114.1
    0.1318              -21.14          22.46          52.14          38.66         -8.821        -0.3103          9.157          32.34           82.7          94.41          114.7
    0.1345              -21.16          24.83          49.99          37.78         -10.25          0.918         -2.556          27.32          72.76          97.88          115.3
    0.1372              -21.17           27.2          47.85           36.9         -11.67          2.146         -14.27          22.29          62.83          101.4          115.9
    0.1399              -21.19          29.39          45.87          36.08         -12.99          3.281         -25.09          17.65          53.65          104.6          116.5
    0.1426               -21.2          31.27          44.16          35.38         -14.12          4.259         -34.42          13.65          45.74          107.3          117.1
    0.1453              -21.21          32.82          42.75           34.8         -15.05          5.062         -42.08          10.37          39.24          109.6          117.5
     0.148              -21.21          34.06          41.64          34.35         -15.79          5.701         -48.17          7.753          34.07          111.4          117.8
    0.1507              -21.22          35.02          40.77          33.99         -16.37          6.201         -52.93          5.708          30.03          112.8          118.1
    0.1534              -21.22          35.77          40.09          33.71         -16.82          6.591         -56.65          4.114          26.88          113.9          118.3
    0.1561              -21.23          36.36          39.55          33.49         -17.18          6.895         -59.55          2.868          24.41          114.8          118.4
    0.1587              -21.23          36.82          39.14          33.32         -17.45          7.135         -61.84          1.889          22.48          115.4          118.6
